<svg width="37" height="37" viewBox="0 0 37 37" fill="none" xmlns="http://www.w3.org/2000/svg">
<path d="M6 0C2.68629 0 0 2.68629 0 6L0 30.9937C0 34.3098 2.69016 36.9972 6.00635 36.9936L18.3064 36.9806L18.3291 23.7658H14.8959C14.4497 23.7658 14.0876 23.405 14.0859 22.9588L14.0694 18.6991C14.0677 18.2505 14.4309 17.8859 14.8795 17.8859H18.3065V13.77C18.3065 8.99344 21.2237 6.39259 25.4847 6.39259H28.9811C29.4285 6.39259 29.7912 6.75526 29.7912 7.2027V10.7945C29.7912 11.2418 29.4288 11.6043 28.9816 11.6046L26.8359 11.6056C24.5186 11.6056 24.0699 12.7067 24.0699 14.3227V17.886H29.1617C29.6469 17.886 30.0233 18.3097 29.9661 18.7915L29.4612 23.0512C29.4129 23.4588 29.0673 23.7659 28.6568 23.7659H24.0926L24.0699 36.9808L30.9911 36.9911C34.3083 36.996 37 34.3083 37 30.9911V6C37 2.68629 34.3137 0 31 0L6 0Z" fill="#395697"/>
</svg>
