<svg width="37" height="37" viewBox="0 0 37 37" fill="none" xmlns="http://www.w3.org/2000/svg">
<g opacity="0.6">
<path opacity="0.5" d="M22.041 18.5C22.041 20.4557 20.4557 22.041 18.5 22.041C16.5443 22.041 14.959 20.4557 14.959 18.5C14.959 16.5443 16.5443 14.959 18.5 14.959C20.4557 14.959 22.041 16.5443 22.041 18.5Z" fill="white"/>
<path opacity="0.5" fill-rule="evenodd" clip-rule="evenodd" d="M26.7812 12.2349C26.611 11.7736 26.3394 11.3561 25.9865 11.0134C25.6439 10.6606 25.2266 10.389 24.7651 10.2188C24.3908 10.0734 23.8285 9.90038 22.7927 9.85324C21.6723 9.80215 21.3364 9.79114 18.5 9.79114C15.6633 9.79114 15.3274 9.80186 14.2073 9.85296C13.1715 9.90038 12.6089 10.0734 12.2349 10.2188C11.7734 10.389 11.3559 10.6606 11.0135 11.0134C10.6606 11.3561 10.389 11.7734 10.2185 12.2349C10.0732 12.6092 9.90011 13.1718 9.85297 14.2075C9.80187 15.3276 9.79086 15.6636 9.79086 18.5003C9.79086 21.3367 9.80187 21.6726 9.85297 22.793C9.90011 23.8287 10.0732 24.3911 10.2185 24.7654C10.389 25.2269 10.6603 25.6441 11.0132 25.9868C11.3559 26.3397 11.7731 26.6112 12.2346 26.7815C12.6089 26.9271 13.1715 27.1002 14.2073 27.1473C15.3274 27.1984 15.663 27.2091 18.4997 27.2091C21.3367 27.2091 21.6726 27.1984 22.7925 27.1473C23.8282 27.1002 24.3908 26.9271 24.7651 26.7815C25.6916 26.4241 26.4238 25.6918 26.7812 24.7654C26.9266 24.3911 27.0996 23.8287 27.147 22.793C27.1981 21.6726 27.2089 21.3367 27.2089 18.5003C27.2089 15.6636 27.1981 15.3276 27.147 14.2075C27.0999 13.1718 26.9268 12.6092 26.7812 12.2349ZM18.5 23.9549C15.4871 23.9549 13.0448 21.5128 13.0448 18.5C13.0448 15.4871 15.4871 13.0451 18.5 13.0451C21.5126 13.0451 23.9549 15.4871 23.9549 18.5C23.9549 21.5128 21.5126 23.9549 18.5 23.9549ZM22.8958 12.8294C22.8958 13.5334 23.4666 14.1042 24.1706 14.1042C24.8746 14.1042 25.4451 13.5334 25.4454 12.8294C25.4454 12.1254 24.8746 11.5546 24.1706 11.5546C23.4666 11.5546 22.8958 12.1254 22.8958 12.8294Z" fill="white"/>
<path opacity="0.5" fill-rule="evenodd" clip-rule="evenodd" d="M6 0C2.68629 0 0 2.68629 0 6V31C0 34.3137 2.68629 37 6 37H31C34.3137 37 37 34.3137 37 31V6C37 2.68629 34.3137 0 31 0H6ZM28.5652 25.4584C28.8278 24.7826 29.0076 24.0105 29.059 22.8797C29.1109 21.7469 29.123 21.385 29.123 18.5C29.123 15.615 29.1109 15.2531 29.0592 14.1203C29.0076 12.9895 28.8281 12.2174 28.5652 11.5416C28.2988 10.8328 27.8804 10.1909 27.3401 9.66016C26.8094 9.11958 26.1672 8.70123 25.4584 8.43447C24.7826 8.17223 24.0105 7.99269 22.8797 7.94131C21.7469 7.88937 21.385 7.87695 18.5 7.87695C15.615 7.87695 15.2531 7.88937 14.1203 7.94103C12.9895 7.99269 12.2174 8.17223 11.5416 8.43475C10.8328 8.70152 10.1906 9.11958 9.66016 9.66016C9.11958 10.1906 8.70123 10.8328 8.43447 11.5416C8.17194 12.2174 7.99241 12.9895 7.94103 14.1203C7.88909 15.2531 7.87695 15.615 7.87695 18.5C7.87695 21.385 7.88909 21.7469 7.94131 22.88C7.99269 24.0105 8.17251 24.7829 8.43504 25.4584C8.7018 26.1672 9.11987 26.8094 9.66016 27.3398C10.1909 27.8804 10.8328 28.2985 11.5419 28.5652C12.2174 28.8278 12.9897 29.0073 14.1203 29.059C15.2534 29.1106 15.615 29.123 18.5003 29.123C21.3853 29.123 21.7472 29.1106 22.88 29.059C24.0105 29.0073 24.7829 28.8278 25.4584 28.5652C26.8854 28.0134 28.0134 26.8854 28.5652 25.4584Z" fill="white"/>
</g>
</svg>
