<svg width="37" height="37" viewBox="0 0 37 37" fill="none" xmlns="http://www.w3.org/2000/svg">
<g opacity="0.6">
<path opacity="0.5" fill-rule="evenodd" clip-rule="evenodd" d="M6 0C2.68629 0 0 2.68629 0 6V31C0 34.3137 2.68629 37 6 37H31C34.3137 37 37 34.3137 37 31V6C37 2.68629 34.3137 0 31 0H6ZM8.61852 27.9668H13.1241V14.4116H8.61852V27.9668ZM10.8715 12.5607H10.8421C9.33017 12.5607 8.35233 11.5199 8.35233 10.2191C8.35233 8.88895 9.36009 7.87695 10.9014 7.87695C12.4427 7.87695 13.3912 8.88895 13.4205 10.2191C13.4205 11.5199 12.4427 12.5607 10.8715 12.5607ZM24.8653 27.9668H29.3703V20.1943C29.3703 16.0308 27.1476 14.0935 24.1833 14.0935C21.7929 14.0935 20.7216 15.4073 20.1229 16.3309V14.4116H15.6176C15.6766 15.6833 15.6176 27.9668 15.6176 27.9668H20.1229V20.397C20.1229 19.9919 20.1519 19.5871 20.2711 19.2975C20.5968 18.4881 21.3381 17.6497 22.5827 17.6497C24.2129 17.6497 24.8653 18.8927 24.8653 20.7151V27.9668Z" fill="white"/>
</g>
</svg>
