<svg width="21" height="21" viewBox="0 0 21 21" fill="none" xmlns="http://www.w3.org/2000/svg">
<path d="M8.59998 11.4499C9.42548 12.5535 10.6896 13.2441 12.0643 13.3426C13.439 13.441 14.7886 12.9376 15.763 11.9629L18.613 9.11287C20.4131 7.24907 20.3873 4.28647 18.5551 2.45423C16.7229 0.621997 13.7603 0.596252 11.8965 2.39637L10.2625 4.02087" stroke="white" stroke-width="1.5" stroke-linecap="round" stroke-linejoin="round"/>
<path d="M12.4 9.54989C11.5745 8.44628 10.3103 7.75562 8.93565 7.65717C7.56098 7.55872 6.21132 8.06218 5.23697 9.03689L2.38697 11.8869C0.586853 13.7507 0.612597 16.7133 2.44483 18.5455C4.27707 20.3778 7.23967 20.4035 9.10347 18.6034L10.728 16.9789" stroke="white" stroke-width="1.5" stroke-linecap="round" stroke-linejoin="round"/>
</svg>
