<svg width="37" height="37" viewBox="0 0 37 37" fill="none" xmlns="http://www.w3.org/2000/svg">
<g opacity="0.6">
<path opacity="0.5" fill-rule="evenodd" clip-rule="evenodd" d="M6 0C2.68629 0 0 2.68629 0 6V31C0 34.3137 2.68629 37 6 37H31C34.3137 37 37 34.3137 37 31V6C37 2.68629 34.3137 0 31 0H6ZM26.959 14.9731C26.959 14.7893 26.9551 14.6064 26.9469 14.4243C27.776 13.825 28.4967 13.077 29.0649 12.2253C28.3041 12.5635 27.4855 12.7913 26.6265 12.8941C27.5033 12.3681 28.1763 11.5365 28.4938 10.5454C27.6732 11.0318 26.7648 11.3852 25.7974 11.576C25.0225 10.7506 23.9194 10.2343 22.6979 10.2343C20.3529 10.2343 18.4512 12.1361 18.4512 14.4802C18.4512 14.8133 18.4887 15.1374 18.5615 15.4485C15.0324 15.2709 11.9029 13.5811 9.80893 11.0118C9.44421 11.6393 9.23391 12.3681 9.23391 13.1461C9.23391 14.6194 9.98338 15.9199 11.1235 16.6807C10.4269 16.6592 9.77251 16.4678 9.20032 16.1497C9.19975 16.1675 9.19975 16.1847 9.19975 16.2039C9.19975 18.2601 10.6634 19.9772 12.6064 20.3662C12.2496 20.4636 11.8741 20.5158 11.4866 20.5158C11.2136 20.5158 10.9474 20.4887 10.6885 20.439C11.2294 22.1263 12.7967 23.3539 14.6555 23.3884C13.202 24.5274 11.3711 25.206 9.38155 25.206C9.03913 25.206 8.70095 25.1865 8.3687 25.1473C10.2479 26.3518 12.4794 27.0547 14.8774 27.0547C22.688 27.0544 26.959 20.5841 26.959 14.9731Z" fill="white"/>
</g>
</svg>
