<svg width="37" height="37" viewBox="0 0 37 37" fill="none" xmlns="http://www.w3.org/2000/svg">
<g opacity="0.6">
<path opacity="0.5" fill-rule="evenodd" clip-rule="evenodd" d="M6 0C2.68629 0 0 2.68629 0 6V31C0 34.3137 2.68629 37 6 37H31C34.3137 37 37 34.3137 37 31V6C37 2.68629 34.3137 0 31 0H6ZM26.3109 20.7398C26.1111 20.5506 25.9114 20.3615 25.7147 20.1694C25.0471 19.518 25.0045 19.1404 25.5422 18.3903C25.854 17.9531 26.1786 17.5251 26.5032 17.097C26.7878 16.7215 27.0725 16.3461 27.3486 15.9643C27.3681 15.9374 27.3876 15.9104 27.4071 15.8834C27.9395 15.1473 28.4743 14.4078 28.7543 13.5264C28.9388 12.9448 28.7754 12.6883 28.1793 12.5863C28.076 12.5685 27.9701 12.5675 27.8659 12.5675L24.3285 12.5633C23.8927 12.5568 23.6524 12.7468 23.4978 13.1328C23.29 13.655 23.076 14.1761 22.828 14.6798C22.2659 15.8218 21.6382 16.9252 20.7573 17.86C20.7448 17.8732 20.7322 17.8867 20.7196 17.9002C20.5351 18.0975 20.3279 18.3191 20.0241 18.2188C19.6188 18.0711 19.4987 17.4022 19.5055 17.1765L19.5022 13.0942C19.4237 12.511 19.2938 12.2512 18.7148 12.1376L15.0413 12.1382C14.5507 12.1382 14.3052 12.3279 14.0431 12.6344C13.8922 12.8117 13.8467 12.9266 14.1571 12.9854C14.7666 13.101 15.1105 13.4959 15.2014 14.1073C15.3475 15.0844 15.3375 16.065 15.253 17.046C15.2284 17.3324 15.1793 17.6181 15.0657 17.8854C14.8881 18.3059 14.601 18.3913 14.2243 18.1328C13.8831 17.8987 13.6434 17.5681 13.4087 17.2366C12.5277 15.9916 11.8247 14.6493 11.2513 13.2384C11.0853 12.8309 10.7996 12.5838 10.3677 12.5769C9.30655 12.56 8.24538 12.5574 7.18422 12.5779C6.5455 12.5899 6.35522 12.8997 6.61532 13.4787C7.77097 16.0494 9.05717 18.5484 10.7366 20.8253C11.599 21.9933 12.5888 23.0249 13.8675 23.7559C15.317 24.5845 16.8766 24.8339 18.5203 24.757C19.2896 24.7209 19.5208 24.5206 19.5561 23.7539C19.5808 23.2295 19.6399 22.7074 19.8987 22.2362C20.1526 21.7732 20.5378 21.6848 20.981 21.9732C21.2031 22.117 21.3895 22.2998 21.5665 22.494C21.7098 22.6506 21.8514 22.8089 21.993 22.9671C22.2793 23.2872 22.5657 23.6072 22.8666 23.9133C23.43 24.4874 24.0982 24.8261 24.938 24.7566L28.1893 24.7573C28.7128 24.7225 28.9849 24.0812 28.6835 23.4964C28.4725 23.0863 28.1952 22.7216 27.901 22.369C27.4135 21.7838 26.8622 21.2618 26.3109 20.7398Z" fill="white"/>
</g>
</svg>
