<svg width="113" height="19" viewBox="0 0 113 19" fill="none" xmlns="http://www.w3.org/2000/svg">
<path d="M14.0742 14.8359V18H1.72266V14.8359H14.0742ZM13.9922 3.04688L3.76172 18H0.785156V15.832L11.1328 0.9375H13.9922V3.04688ZM12.668 0.9375V4.11328H0.726562V0.9375H12.668ZM14.3006 11.7891V11.543C14.3006 10.6133 14.4334 9.75781 14.699 8.97656C14.9647 8.1875 15.3553 7.50391 15.8709 6.92578C16.3865 6.34766 17.0233 5.89844 17.7811 5.57812C18.5389 5.25 19.4139 5.08594 20.4061 5.08594C21.4061 5.08594 22.285 5.25 23.0428 5.57812C23.8084 5.89844 24.449 6.34766 24.9647 6.92578C25.4803 7.50391 25.8709 8.1875 26.1365 8.97656C26.4022 9.75781 26.535 10.6133 26.535 11.543V11.7891C26.535 12.7109 26.4022 13.5664 26.1365 14.3555C25.8709 15.1367 25.4803 15.8203 24.9647 16.4062C24.449 16.9844 23.8123 17.4336 23.0545 17.7539C22.2967 18.0742 21.4217 18.2344 20.4295 18.2344C19.4373 18.2344 18.5584 18.0742 17.7928 17.7539C17.0272 17.4336 16.3865 16.9844 15.8709 16.4062C15.3553 15.8203 14.9647 15.1367 14.699 14.3555C14.4334 13.5664 14.3006 12.7109 14.3006 11.7891ZM18.2498 11.543V11.7891C18.2498 12.2656 18.285 12.7109 18.3553 13.125C18.4256 13.5391 18.5428 13.9023 18.7069 14.2148C18.8709 14.5195 19.0936 14.7578 19.3748 14.9297C19.6561 15.1016 20.0076 15.1875 20.4295 15.1875C20.8436 15.1875 21.1873 15.1016 21.4608 14.9297C21.742 14.7578 21.9647 14.5195 22.1287 14.2148C22.2928 13.9023 22.41 13.5391 22.4803 13.125C22.5506 12.7109 22.5858 12.2656 22.5858 11.7891V11.543C22.5858 11.082 22.5506 10.6484 22.4803 10.2422C22.41 9.82812 22.2928 9.46484 22.1287 9.15234C21.9647 8.83203 21.742 8.58203 21.4608 8.40234C21.1795 8.22266 20.828 8.13281 20.4061 8.13281C19.992 8.13281 19.6444 8.22266 19.3631 8.40234C19.0897 8.58203 18.8709 8.83203 18.7069 9.15234C18.5428 9.46484 18.4256 9.82812 18.3553 10.2422C18.285 10.6484 18.2498 11.082 18.2498 11.543ZM31.4606 8.02734V18H27.5114V5.32031H31.2145L31.4606 8.02734ZM30.9918 11.2266L30.0661 11.25C30.0661 10.2812 30.1832 9.41797 30.4176 8.66016C30.652 7.89453 30.984 7.24609 31.4137 6.71484C31.8434 6.18359 32.3551 5.78125 32.9489 5.50781C33.5504 5.22656 34.2184 5.08594 34.9528 5.08594C35.5387 5.08594 36.0739 5.17188 36.5582 5.34375C37.0504 5.51562 37.4723 5.79297 37.8239 6.17578C38.1832 6.55859 38.4567 7.06641 38.6442 7.69922C38.8395 8.32422 38.9372 9.09766 38.9372 10.0195V18H34.9645V10.0078C34.9645 9.5 34.8942 9.11328 34.7536 8.84766C34.6129 8.57422 34.4098 8.38672 34.1442 8.28516C33.8786 8.18359 33.5543 8.13281 33.1715 8.13281C32.7653 8.13281 32.4215 8.21094 32.1403 8.36719C31.859 8.52344 31.6325 8.74219 31.4606 9.02344C31.2965 9.29688 31.1754 9.62109 31.0973 9.99609C31.027 10.3711 30.9918 10.7812 30.9918 11.2266ZM46.5581 18.2344C45.5268 18.2344 44.6049 18.0742 43.7924 17.7539C42.9799 17.4258 42.2924 16.9766 41.7299 16.4062C41.1753 15.8359 40.7495 15.1797 40.4526 14.4375C40.1635 13.6953 40.019 12.9102 40.019 12.082V11.6367C40.019 10.707 40.1479 9.84766 40.4057 9.05859C40.6635 8.26172 41.0464 7.56641 41.5542 6.97266C42.062 6.37891 42.6987 5.91797 43.4643 5.58984C44.2299 5.25391 45.1206 5.08594 46.1362 5.08594C47.0346 5.08594 47.8393 5.23047 48.5503 5.51953C49.2612 5.80859 49.8628 6.22266 50.3549 6.76172C50.8549 7.30078 51.2339 7.95312 51.4917 8.71875C51.7573 9.48438 51.8901 10.3438 51.8901 11.2969V12.9023H41.5307V10.4297H48.0346V10.125C48.0424 9.70312 47.9682 9.34375 47.812 9.04688C47.6635 8.75 47.4448 8.52344 47.1557 8.36719C46.8667 8.21094 46.5151 8.13281 46.101 8.13281C45.6714 8.13281 45.3159 8.22656 45.0346 8.41406C44.7612 8.60156 44.5464 8.85938 44.3901 9.1875C44.2417 9.50781 44.1362 9.87891 44.0737 10.3008C44.0112 10.7227 43.9799 11.168 43.9799 11.6367V12.082C43.9799 12.5508 44.0424 12.9766 44.1674 13.3594C44.3003 13.7422 44.4878 14.0703 44.7299 14.3438C44.9799 14.6094 45.2768 14.8164 45.6206 14.9648C45.9721 15.1133 46.3706 15.1875 46.8159 15.1875C47.3549 15.1875 47.8862 15.0859 48.4096 14.8828C48.9331 14.6797 49.3823 14.3438 49.7573 13.875L51.5503 16.0078C51.2924 16.375 50.9253 16.7305 50.4487 17.0742C49.9799 17.418 49.4174 17.6992 48.7612 17.918C48.1049 18.1289 47.3706 18.2344 46.5581 18.2344Z" fill="#3CC8AE"/>
<path d="M59.429 14.4375C59.429 14.2188 59.3548 14.0312 59.2063 13.875C59.0657 13.7109 58.8157 13.5625 58.4563 13.4297C58.097 13.2891 57.5931 13.1484 56.9446 13.0078C56.3274 12.875 55.7454 12.6992 55.1985 12.4805C54.6595 12.2617 54.1868 11.9961 53.7806 11.6836C53.3743 11.3711 53.054 11 52.8196 10.5703C52.5931 10.1406 52.4798 9.64844 52.4798 9.09375C52.4798 8.55469 52.5931 8.04688 52.8196 7.57031C53.054 7.08594 53.3938 6.66016 53.8391 6.29297C54.2923 5.91797 54.8431 5.625 55.4915 5.41406C56.1399 5.19531 56.8782 5.08594 57.7063 5.08594C58.847 5.08594 59.8313 5.26172 60.6595 5.61328C61.4876 5.95703 62.1243 6.44141 62.5696 7.06641C63.0227 7.68359 63.2493 8.39844 63.2493 9.21094H59.3001C59.3001 8.89062 59.2454 8.61719 59.136 8.39062C59.0345 8.16406 58.8665 7.99219 58.6321 7.875C58.3977 7.75 58.0852 7.6875 57.6946 7.6875C57.4212 7.6875 57.1712 7.73828 56.9446 7.83984C56.7259 7.94141 56.5501 8.08203 56.4173 8.26172C56.2845 8.44141 56.2181 8.65234 56.2181 8.89453C56.2181 9.06641 56.2571 9.22266 56.3352 9.36328C56.4212 9.49609 56.5501 9.62109 56.722 9.73828C56.8938 9.84766 57.1126 9.94922 57.3782 10.043C57.6438 10.1289 57.9641 10.207 58.3391 10.2773C59.1907 10.4336 59.9876 10.6562 60.7298 10.9453C61.472 11.2344 62.0735 11.6445 62.5345 12.1758C63.0032 12.707 63.2376 13.4219 63.2376 14.3203C63.2376 14.8828 63.1087 15.4023 62.8509 15.8789C62.5931 16.3477 62.222 16.7617 61.7376 17.1211C61.2532 17.4727 60.6712 17.7461 59.9915 17.9414C59.3118 18.1367 58.5462 18.2344 57.6946 18.2344C56.4837 18.2344 55.4602 18.0195 54.6243 17.5898C53.7884 17.1523 53.1556 16.6055 52.7259 15.9492C52.304 15.2852 52.0931 14.6133 52.0931 13.9336H55.7727C55.7884 14.3242 55.8821 14.6445 56.054 14.8945C56.2337 15.1445 56.472 15.3281 56.7688 15.4453C57.0657 15.5625 57.4095 15.6211 57.8001 15.6211C58.1595 15.6211 58.4563 15.5703 58.6907 15.4688C58.9329 15.3672 59.1165 15.2305 59.2415 15.0586C59.3665 14.8789 59.429 14.6719 59.429 14.4375ZM68.3624 8.00391V18H64.4132V5.32031H68.1163L68.3624 8.00391ZM67.8819 11.2266L66.9796 11.25C66.9796 10.3594 67.0851 9.53906 67.296 8.78906C67.5069 8.03906 67.8194 7.38672 68.2335 6.83203C68.6476 6.27734 69.1554 5.84766 69.7569 5.54297C70.3663 5.23828 71.0694 5.08594 71.8663 5.08594C72.421 5.08594 72.9249 5.17188 73.378 5.34375C73.8312 5.50781 74.2218 5.76953 74.5499 6.12891C74.878 6.48047 75.128 6.94141 75.2999 7.51172C75.4796 8.07422 75.5694 8.75 75.5694 9.53906V18H71.6202V10.043C71.6202 9.50391 71.5577 9.09766 71.4327 8.82422C71.3155 8.55078 71.1437 8.36719 70.9171 8.27344C70.6905 8.17969 70.4132 8.13281 70.0851 8.13281C69.7413 8.13281 69.4327 8.21094 69.1593 8.36719C68.8858 8.52344 68.6515 8.74219 68.4562 9.02344C68.2687 9.29688 68.1241 9.62109 68.0226 9.99609C67.9288 10.3711 67.8819 10.7812 67.8819 11.2266ZM75.1241 11.2266L74.0226 11.25C74.0226 10.3594 74.1202 9.53906 74.3155 8.78906C74.5187 8.03906 74.8194 7.38672 75.2179 6.83203C75.6241 6.27734 76.128 5.84766 76.7296 5.54297C77.3312 5.23828 78.0304 5.08594 78.8273 5.08594C79.4054 5.08594 79.9366 5.17188 80.421 5.34375C80.9054 5.51562 81.3233 5.79297 81.6749 6.17578C82.0265 6.55859 82.2999 7.06641 82.4952 7.69922C82.6905 8.32422 82.7882 9.09766 82.7882 10.0195V18H78.8273V10.0195C78.8273 9.49609 78.7648 9.10156 78.6398 8.83594C78.5226 8.5625 78.3507 8.37891 78.1241 8.28516C77.8976 8.18359 77.628 8.13281 77.3155 8.13281C76.9405 8.13281 76.6163 8.21094 76.3429 8.36719C76.0694 8.52344 75.839 8.74219 75.6515 9.02344C75.4718 9.29688 75.339 9.62109 75.253 9.99609C75.1671 10.3711 75.1241 10.7812 75.1241 11.2266ZM90.9247 14.8125V9.58594C90.9247 9.22656 90.874 8.91797 90.7724 8.66016C90.6708 8.40234 90.5107 8.20312 90.2919 8.0625C90.0732 7.91406 89.7802 7.83984 89.413 7.83984C89.1161 7.83984 88.8622 7.89062 88.6513 7.99219C88.4404 8.09375 88.2802 8.24609 88.1708 8.44922C88.0615 8.65234 88.0068 8.91016 88.0068 9.22266H84.0575C84.0575 8.63672 84.1865 8.09375 84.4443 7.59375C84.7099 7.08594 85.0849 6.64453 85.5693 6.26953C86.0615 5.89453 86.6474 5.60547 87.3271 5.40234C88.0146 5.19141 88.7802 5.08594 89.624 5.08594C90.6318 5.08594 91.5302 5.25391 92.3193 5.58984C93.1161 5.92578 93.745 6.42969 94.206 7.10156C94.6669 7.76562 94.8974 8.60156 94.8974 9.60938V14.8008C94.8974 15.6289 94.9443 16.2578 95.038 16.6875C95.1318 17.1094 95.2646 17.4805 95.4365 17.8008V18H91.4755C91.288 17.6094 91.1474 17.1328 91.0536 16.5703C90.9677 16 90.9247 15.4141 90.9247 14.8125ZM91.4052 10.2539L91.4286 12.3633H89.6825C89.3154 12.3633 89.0029 12.4141 88.745 12.5156C88.495 12.6172 88.2919 12.7578 88.1357 12.9375C87.9872 13.1094 87.8779 13.3047 87.8075 13.5234C87.745 13.7422 87.7138 13.9727 87.7138 14.2148C87.7138 14.4492 87.7685 14.6602 87.8779 14.8477C87.995 15.0273 88.1513 15.168 88.3466 15.2695C88.5419 15.3711 88.7607 15.4219 89.0029 15.4219C89.4404 15.4219 89.8115 15.3398 90.1161 15.1758C90.4286 15.0039 90.6669 14.7969 90.831 14.5547C90.995 14.3125 91.0771 14.0859 91.0771 13.875L91.9443 15.4922C91.788 15.8047 91.6083 16.1211 91.4052 16.4414C91.2099 16.7617 90.9638 17.0586 90.6669 17.332C90.3779 17.5977 90.0224 17.8164 89.6005 17.9883C89.1786 18.1523 88.6669 18.2344 88.0654 18.2344C87.2841 18.2344 86.5654 18.0742 85.9091 17.7539C85.2607 17.4336 84.7411 16.9883 84.3505 16.418C83.9599 15.8398 83.7646 15.1758 83.7646 14.4258C83.7646 13.7695 83.8818 13.1836 84.1161 12.668C84.3583 12.1523 84.7216 11.7148 85.206 11.3555C85.6904 10.9961 86.3075 10.7227 87.0575 10.5352C87.8075 10.3477 88.6904 10.2539 89.706 10.2539H91.4052ZM100.362 8.46094V18H96.4128V5.32031H100.104L100.362 8.46094ZM104.112 5.22656L104.042 8.89453C103.886 8.87891 103.675 8.85938 103.409 8.83594C103.143 8.8125 102.921 8.80078 102.741 8.80078C102.28 8.80078 101.882 8.85547 101.546 8.96484C101.218 9.06641 100.944 9.22266 100.725 9.43359C100.514 9.63672 100.358 9.89453 100.257 10.207C100.163 10.5195 100.12 10.8828 100.128 11.2969L99.4128 10.8281C99.4128 9.97656 99.4949 9.20312 99.6589 8.50781C99.8308 7.80469 100.073 7.19922 100.386 6.69141C100.698 6.17578 101.077 5.78125 101.522 5.50781C101.968 5.22656 102.468 5.08594 103.022 5.08594C103.218 5.08594 103.409 5.09766 103.596 5.12109C103.792 5.14453 103.964 5.17969 104.112 5.22656ZM112.026 5.32031V8.0625H104.385V5.32031H112.026ZM105.991 2.16797H109.94V13.8633C109.94 14.1992 109.979 14.4609 110.057 14.6484C110.135 14.8281 110.268 14.957 110.456 15.0352C110.651 15.1055 110.909 15.1406 111.229 15.1406C111.456 15.1406 111.643 15.1367 111.792 15.1289C111.94 15.1133 112.081 15.0938 112.213 15.0703V17.8945C111.878 18.0039 111.526 18.0859 111.159 18.1406C110.792 18.2031 110.401 18.2344 109.987 18.2344C109.143 18.2344 108.42 18.1016 107.819 17.8359C107.225 17.5703 106.772 17.1523 106.46 16.582C106.147 16.0117 105.991 15.2695 105.991 14.3555V2.16797Z" fill="black"/>
</svg>
